PathFileType   4   (X/Y/Z)
DataRate	CameraRate	NumFrames	NumMarkers	Units	OrigDataRate	OrigDataStartFrame	OrigNumFrames
120.0	120.0	6	37	mm	120.0	14	111
Frame#	Time	midhip	hip_r	hip_l	knee_r	knee_l	ankle_r	ankle_l	midasis	asis_r	asis_l	psis_r	psis_l	epicondLat_r	epicondLat_l	epicondMed_r	epicondMed_l	malleolusLat_r	malleolusLat_l	malleolusMedv_r	malleolusMedv_l	neck	subclavicle_r	subclavicle_l	sternalnotch	xyphoidprocess	thighwand_r	thighwand_l	upperleg1_r	upperleg1_l	upperleg2_r	upperleg2_l	shankwand_r	shankwand_l	lowerleg1_r	lowerleg1_l	toe_r	toe_l
 	 	X1	Y1	Z1	X2	Y2	Z2	X3	Y3	Z3	X4	Y4	Z4	X5	Y5	Z5	X6	Y6	Z6	X7	Y7	Z7	X8	Y8	Z8	X9	Y9	Z9	X10	Y10	Z10	X11	Y11	Z11	X12	Y12	Z12	X13	Y13	Z13	X14	Y14	Z14	X15	Y15	Z15	X16	Y16	Z16	X17	Y17	Z17	X18	Y18	Z18	X19	Y19	Z19	X20	Y20	Z20	X21	Y21	Z21	X22	Y22	Z22	X23	Y23	Z23	X24	Y24	Z24	X25	Y25	Z25	X26	Y26	Z26	X27	Y27	Z27	X28	Y28	Z28	X29	Y29	Z29	X30	Y30	Z30	X31	Y31	Z31	X32	Y32	Z32	X33	Y33	Z33	X34	Y34	Z34	X35	Y35	Z35	X36	Y36	Z36	X37	Y37	Z37

	14	0.20000	844.024	615.698	-323.874	843.333	622.131	-266.911	855.558	634.312	-383.081	888.443	330.434	-234.693	911.193	342.112	-340.699	663.250	166.478	-285.547	864.881	55.073	-329.798	891.784	690.563	-314.004	882.414	681.226	-224.958	901.154	699.900	-403.049	752.483	703.295	-282.292	760.919	707.442	-366.720	880.043	334.113	-189.617	908.945	334.811	-388.087	908.186	318.937	-266.942	904.418	347.710	-297.390	651.478	173.141	-254.899	858.668	54.863	-361.698	677.832	163.384	-310.887	859.335	56.425	-296.168	814.914	1030.216	-327.967	902.191	958.723	-279.623	903.370	956.364	-369.855	888.931	971.397	-317.860	923.666	833.881	-318.658	1008.581	431.689	-248.109	956.004	415.335	-454.953	927.451	475.600	-211.056	942.035	480.214	-384.856	933.587	388.714	-200.970	950.353	401.825	-354.478	706.877	202.992	-169.958	970.429	150.097	-301.558	772.216	245.065	-216.422	917.845	210.658	-330.448	690.246	83.382	-260.076	948.479	36.545	-321.648
	15	0.20833	852.712	617.574	-323.226	852.197	624.409	-266.408	863.776	635.794	-382.725	904.243	333.867	-232.063	913.843	342.317	-341.011	685.631	163.557	-281.790	865.142	55.182	-329.856	900.604	692.365	-314.230	891.739	683.648	-225.171	909.470	701.081	-403.288	761.793	705.716	-281.476	769.795	709.307	-365.977	897.961	338.106	-186.691	910.144	334.965	-388.300	922.224	322.388	-263.040	911.584	345.849	-298.789	673.338	170.463	-251.402	858.740	55.030	-361.718	700.362	160.592	-306.722	859.436	56.801	-296.197	823.596	1031.976	-327.221	910.619	960.781	-277.896	911.988	958.183	-367.788	897.565	973.348	-316.113	932.202	835.842	-316.374	1022.118	438.359	-252.997	957.098	414.010	-456.323	942.045	481.061	-213.061	945.490	478.969	-386.339	950.273	394.425	-200.767	955.004	400.811	-357.353	726.938	203.507	-166.576	971.198	149.788	-302.424	791.603	246.495	-213.168	919.063	210.855	-331.353	715.733	82.657	-254.755	948.518	36.539	-321.686
	16	0.21667	861.472	619.331	-322.454	861.340	626.572	-265.812	872.063	637.104	-382.291	919.978	337.127	-229.599	915.992	342.385	-341.222	708.237	159.824	-277.867	865.417	55.302	-329.896	909.572	694.050	-314.480	901.376	685.999	-225.446	917.768	702.101	-403.514	771.091	707.971	-280.613	778.594	711.006	-365.186	915.425	341.901	-184.075	911.327	335.110	-388.438	934.052	326.186	-259.876	915.924	344.408	-299.841	695.495	166.824	-247.686	858.800	55.212	-361.716	722.813	157.429	-302.726	859.630	57.135	-296.265	832.371	1033.625	-326.357	919.055	962.550	-276.344	921.675	960.286	-366.278	906.224	975.138	-314.428	941.675	837.840	-315.002	1035.281	444.712	-256.853	958.910	412.896	-457.131	955.797	486.131	-214.374	949.425	477.713	-386.900	964.463	399.403	-200.337	958.595	399.571	-359.005	747.463	203.039	-163.111	971.939	149.506	-303.266	811.123	247.316	-210.112	920.093	210.871	-331.906	741.733	81.314	-249.650	948.562	36.536	-321.719
	17	0.22500	870.338	620.957	-321.558	870.776	628.592	-265.112	880.432	638.227	-381.762	935.654	340.202	-227.351	917.653	342.318	-341.270	731.050	155.372	-273.814	865.665	55.432	-329.908	918.689	695.601	-314.734	911.324	688.252	-225.757	926.055	702.950	-403.710	780.363	710.026	-279.689	787.276	712.517	-364.332	932.331	345.423	-181.769	912.583	335.222	-388.471	952.842	329.560	-256.643	915.778	343.754	-300.209	717.978	162.286	-243.754	858.850	55.409	-361.685	745.379	153.568	-298.660	859.883	57.416	-296.301	841.203	1035.153	-325.491	927.574	964.099	-274.892	931.116	962.206	-364.632	914.942	976.759	-312.836	950.924	839.607	-313.726	1048.228	450.749	-259.340	961.626	411.988	-457.290	968.941	490.913	-214.611	953.595	476.544	-386.291	982.300	405.380	-199.718	960.361	398.003	-358.799	768.537	201.508	-159.554	972.609	149.252	-303.943	830.645	247.505	-207.140	920.887	210.777	-332.312	768.194	79.405	-244.706	948.606	36.539	-321.747
	18	0.23333	879.223	622.446	-320.570	880.431	630.446	-264.305	888.860	639.148	-381.124	951.231	343.080	-225.349	918.898	342.145	-341.130	754.069	150.283	-269.663	865.854	55.579	-329.878	927.906	696.993	-314.960	921.492	690.371	-226.067	934.319	703.615	-403.853	789.596	711.857	-278.683	795.819	713.827	-363.397	948.613	348.615	-179.759	913.972	335.284	-388.381	969.467	333.288	-254.025	910.348	344.618	-300.246	740.822	156.925	-239.619	858.895	55.620	-361.624	768.310	148.819	-294.392	860.035	57.574	-296.385	850.022	1036.484	-324.622	936.059	965.465	-273.352	940.349	963.892	-362.863	923.733	978.188	-311.347	959.981	841.156	-312.314	1061.083	456.457	-260.360	965.273	411.253	-456.800	981.603	495.427	-213.793	958.351	475.790	-384.753	997.975	410.526	-198.521	959.910	395.869	-356.828	790.211	198.915	-155.903	973.177	149.034	-304.332	850.196	246.907	-204.201	921.476	210.594	-332.504	795.067	77.002	-239.871	948.645	36.549	-321.773
	19	0.24167	888.042	623.740	-319.482	890.178	632.109	-263.396	897.302	639.858	-380.368	966.640	345.742	-223.597	919.837	341.908	-340.822	777.322	144.629	-265.430	865.969	55.749	-329.801	937.142	698.195	-315.117	931.734	692.313	-226.326	942.550	704.077	-403.908	798.772	713.453	-277.577	804.213	714.931	-362.366	964.244	351.437	-178.014	915.518	335.297	-388.168	984.813	337.052	-252.165	905.990	351.463	-299.090	764.066	150.839	-235.298	858.942	55.850	-361.533	791.683	143.276	-290.010	859.935	57.670	-296.477	858.832	1037.590	-323.745	944.482	966.629	-271.772	949.588	965.345	-361.191	932.559	979.390	-309.913	969.010	842.491	-310.875	1073.909	461.815	-260.018	969.729	410.644	-455.751	993.946	499.487	-212.250	970.666	476.746	-383.443	1012.192	414.919	-196.996	961.913	395.140	-354.780	812.494	195.351	-152.157	973.636	148.858	-304.379	869.977	245.254	-201.215	921.974	210.366	-332.135	822.321	74.194	-235.099	948.677	36.565	-321.801
